#N canvas 996 56 826 746 10;
#X obj 333 -35 vsl 15 128 0 1 0 0 empty empty empty 0 -9 0 10 -262144
-1 -1 3000 1;
#X obj 35 -53 route 1 2 3 4;
#X obj 35 -89 pack 0 0 0;
#X obj 10 22 bng 15 250 50 0 empty empty empty 17 7 0 10 -262144 -1
-1;
#X obj 31 49 bng 15 250 50 0 empty empty empty 17 7 0 10 -262144 -1
-1;
#X obj 133 -17 bng 15 250 50 0 empty empty empty 17 7 0 10 -262144
-1 -1;
#X obj 91 96 bng 15 250 50 0 empty empty empty 17 7 0 10 -262144 -1
-1;
#X obj 59 71 bng 15 250 50 0 empty empty empty 17 7 0 10 -262144 -1
-1;
#X obj 26 117 +~;
#X obj 58 145 +~;
#X obj 85 177 +~;
#X obj 281 -80 s off;
#X obj 280 -106 bng 15 250 50 0 empty empty empty 17 7 0 10 -262144
-1 -1;
#X obj 183 482 output~;
#X obj 221 211 hsl 128 15 20 20000 0 0 empty empty empty -2 -8 0 10
-262144 -1 -1 2500 1;
#X floatatom 216 233 5 0 0 0 - - -;
#X obj 243 322 rev2~ 100 80 3000 20;
#X obj 106 95 tesla-coil-voice;
#X obj 387 279 vsl 15 128 0 127 0 0 empty empty empty 0 -9 0 10 -262144
-1 -1 0 1;
#X obj 35 226 hsl 128 15 0 1 0 0 empty empty empty -2 -8 0 10 -262144
-1 -1 3200 1;
#X floatatom 143 337 5 0 0 0 - - -;
#X obj 51 393 *~;
#X obj 233 366 *~;
#X obj 283 367 *~;
#X obj 179 440 +~;
#X obj 238 440 +~;
#X floatatom 25 365 5 0 0 0 - - -;
#X obj 6 300 * -1;
#X obj 9 331 + 1;
#X obj 31 -140 poly 4 1;
#X obj 152 264 lop~ 3950;
#X obj 29 -175 notein 2;
#X obj 430 389 vu 15 120 empty empty -1 -8 0 10 -66577 -1 1 0;
#X obj 25 21 tesla-coil-voice;
#X obj 47 48 tesla-coil-voice;
#X obj 75 71 tesla-coil-voice;
#X floatatom 196 148 5 0 0 0 - - -;
#X obj 117 224 *~ 0.25;
#X floatatom 83 263 5 0 0 0 - - -;
#X msg 26 194 0.25;
#X obj 562 209 load;
#X connect 0 0 36 0;
#X connect 1 0 3 0;
#X connect 1 0 33 0;
#X connect 1 1 4 0;
#X connect 1 1 34 0;
#X connect 1 2 7 0;
#X connect 1 2 35 0;
#X connect 1 3 6 0;
#X connect 1 3 17 0;
#X connect 1 4 5 0;
#X connect 2 0 1 0;
#X connect 8 0 9 0;
#X connect 9 0 10 0;
#X connect 10 0 37 0;
#X connect 12 0 11 0;
#X connect 14 0 15 0;
#X connect 15 0 30 1;
#X connect 16 0 22 0;
#X connect 16 1 23 0;
#X connect 17 0 10 1;
#X connect 19 0 38 0;
#X connect 20 0 22 1;
#X connect 20 0 23 1;
#X connect 21 0 24 0;
#X connect 21 0 25 0;
#X connect 22 0 24 1;
#X connect 23 0 25 1;
#X connect 24 0 13 0;
#X connect 25 0 13 1;
#X connect 26 0 21 1;
#X connect 27 0 28 0;
#X connect 28 0 26 0;
#X connect 29 0 2 0;
#X connect 29 1 2 1;
#X connect 29 2 2 2;
#X connect 30 0 16 0;
#X connect 30 0 21 0;
#X connect 31 0 29 0;
#X connect 31 1 29 1;
#X connect 33 0 8 0;
#X connect 34 0 8 1;
#X connect 35 0 9 1;
#X connect 36 0 37 1;
#X connect 37 0 30 0;
#X connect 38 0 27 0;
#X connect 38 0 20 0;
#X connect 39 0 19 0;
