#N canvas 1444 195 943 504 10;
#X obj 62 111 mtof;
#X obj 60 219 phasor~;
#X obj 106 328 *~;
#X obj 204 293 *~;
#X obj 113 449 outlet~;
#X obj 77 81 unpack 1 2;
#X obj 82 27 inlet;
#X text 376 148 attack;
#X text 447 149 release;
#X obj 378 285 line~;
#X obj 377 219 del 200;
#X obj 377 168 bng 15 250 50 0 empty empty empty 0 -6 0 8 -262144 -1
-1;
#X obj 448 169 bng 15 250 50 0 empty empty empty 0 -6 0 8 -262144 -1
-1;
#X msg 387 196 stop;
#X msg 312 219 10 10;
#X msg 448 243 0 10;
#X obj 185 218 / 1270;
#X obj 245 101 sel 0;
#X obj 245 194 f 0;
#X obj 153 15 r off;
#X msg 153 49 0 0;
#X obj 147 300 noise~;
#X obj 87 393 *~;
#X msg 377 243 9 10;
#X obj -10 256 *~ 20;
#X obj -13 283 clip~ -0.5 0.5;
#X obj 37 382 +~;
#X obj -16 311 cos~;
#X obj 579 153 makenote;
#X obj 579 177 pack 0 0;
#X msg 694 55 40 80 2000;
#X msg 695 36 28 80 2000;
#X msg 694 75 52 80 2000;
#X msg 695 121 76 80 2000;
#X msg 695 144 88 80 2000;
#X msg 695 98 64 80 2000;
#X obj 791 70 metro 500;
#X obj 797 35 tgl 15 0 empty empty empty 17 7 0 10 -262144 -1 -1 0
1;
#X msg 790 95 44 80 300;
#X obj 407 341 vsl 15 128 0.001 2 1 0 empty empty empty 0 -9 0 10 -262144
-1 -1 3800 1;
#X floatatom 236 418 5 0 0 0 - - -;
#X floatatom 5 165 5 0 0 0 - - -;
#X floatatom 160 189 5 0 0 0 - - -;
#X obj 90 260 -~;
#X obj 90 282 max~ 0;
#X obj 135 214 inv;
#X obj 91 305 *~;
#X obj 241 348 hsl 128 15 0 1 0 0 empty empty empty -2 -8 0 10 -262144
-1 -1 10800 1;
#X floatatom 170 350 5 0 0 0 - - -;
#X obj 744 255 del 50;
#X obj 683 367 tabwrite~ signal;
#X obj 669 216 t b;
#X obj 117 163 min 0.5;
#X obj 117 139 * 0.0075;
#X obj 95 350 *~ 0.85;
#X obj 129 420 bp~ 100 0.009;
#X connect 0 0 1 0;
#X connect 0 0 41 0;
#X connect 0 0 53 0;
#X connect 0 0 55 1;
#X connect 1 0 24 0;
#X connect 1 0 43 1;
#X connect 2 0 50 0;
#X connect 2 0 54 0;
#X connect 3 0 22 1;
#X connect 5 0 0 0;
#X connect 5 1 17 0;
#X connect 6 0 5 0;
#X connect 9 0 3 1;
#X connect 10 0 23 0;
#X connect 11 0 10 0;
#X connect 11 0 14 0;
#X connect 12 0 15 0;
#X connect 12 0 13 0;
#X connect 13 0 10 0;
#X connect 14 0 9 0;
#X connect 15 0 9 0;
#X connect 16 0 3 0;
#X connect 17 0 12 0;
#X connect 17 1 11 0;
#X connect 17 1 18 0;
#X connect 18 0 16 0;
#X connect 19 0 20 0;
#X connect 20 0 5 0;
#X connect 21 0 2 1;
#X connect 22 0 55 0;
#X connect 23 0 9 0;
#X connect 24 0 25 0;
#X connect 25 0 27 0;
#X connect 26 0 22 0;
#X connect 27 0 26 0;
#X connect 28 0 29 0;
#X connect 28 1 29 1;
#X connect 29 0 5 0;
#X connect 29 0 51 0;
#X connect 30 0 28 0;
#X connect 31 0 28 0;
#X connect 32 0 28 0;
#X connect 33 0 28 0;
#X connect 34 0 28 0;
#X connect 35 0 28 0;
#X connect 36 0 38 0;
#X connect 37 0 36 0;
#X connect 38 0 28 0;
#X connect 39 0 40 0;
#X connect 40 0 55 2;
#X connect 43 0 44 0;
#X connect 44 0 46 0;
#X connect 45 0 46 1;
#X connect 46 0 2 0;
#X connect 47 0 48 0;
#X connect 48 0 54 1;
#X connect 49 0 50 0;
#X connect 51 0 49 0;
#X connect 52 0 42 0;
#X connect 52 0 43 0;
#X connect 52 0 45 0;
#X connect 53 0 52 0;
#X connect 54 0 26 1;
#X connect 55 0 4 0;
